<?xml version="1.0" encoding="UTF-8" standalone="no"?>
<!DOCTYPE svg PUBLIC "-//W3C//DTD SVG 1.1//EN" "http://www.w3.org/Graphics/SVG/1.1/DTD/svg11.dtd">
<svg width="100%" height="100%" viewBox="0 0 24 24" version="1.1" xmlns="http://www.w3.org/2000/svg" xmlns:xlink="http://www.w3.org/1999/xlink" xml:space="preserve" xmlns:serif="http://www.serif.com/" style="fill-rule:evenodd;clip-rule:evenodd;stroke-linejoin:round;stroke-miterlimit:2;">
    <g transform="matrix(1,0,0,1,0,2.5)">
        <path d="M2,11L0,11L0,13L2,13L2,11ZM2,16L0,16L0,18L2,18L2,16ZM2,1L0,1L0,3L2,3L2,1ZM4,1L4,3L24,3L24,1L4,1ZM2,6L0,6L0,8L2,8L2,6ZM4,13L24,13L24,11L4,11L4,13ZM4,8L24,8L24,6L4,6L4,8ZM4,18L24,18L24,16L4,16L4,18Z" style="fill:white;fill-rule:nonzero;"/>
    </g>
</svg>
