<?xml version="1.0" encoding="UTF-8" standalone="no"?>
<!DOCTYPE svg PUBLIC "-//W3C//DTD SVG 1.1//EN" "http://www.w3.org/Graphics/SVG/1.1/DTD/svg11.dtd">
<svg width="100%" height="100%" viewBox="0 0 827 477" version="1.1" xmlns="http://www.w3.org/2000/svg" xmlns:xlink="http://www.w3.org/1999/xlink" xml:space="preserve" xmlns:serif="http://www.serif.com/" style="fill-rule:evenodd;clip-rule:evenodd;stroke-linejoin:round;stroke-miterlimit:2;">
    <g transform="matrix(1,0,0,1,-164.898,-424.612)">
        <g transform="matrix(2.73975,0,0,2.4321,-350.688,316.173)">
            <g transform="matrix(0.496811,0,0,0.496811,117.342,111.623)">
                <g transform="matrix(0.364997,0,0,0.411168,128,-130)">
                    <path d="M40,820L40,564L1192,-12L1704,244L1704,500L1064,820L808,692L296,948L40,820Z" style="fill:rgb(229,85,109);"/>
                </g>
                <g transform="matrix(0.73468,0,0,0.827613,21.4527,-486.349)">
                    <path d="M673.633,710.776L991.592,551.796L991.592,678.98L673.633,837.959L673.633,710.776Z" style="fill:rgb(236,131,149);"/>
                </g>
                <g transform="matrix(0.73468,0,0,0.827613,21.4527,-486.349)">
                    <path d="M292.082,901.551L292.082,774.367L544.408,648.204L546.449,774.367L292.082,901.551Z" style="fill:rgb(236,131,149);"/>
                </g>
                <g transform="matrix(0.364997,0,0,0.411168,232.572,44.6434)">
                    <g transform="matrix(2,0,0,2,-758.5,-756.75)">
                        <path d="M768,576L704,544L736,496L768,576Z" style="fill:rgb(207,51,78);"/>
                    </g>
                    <g transform="matrix(2,0,0,2,-758.5,-884.75)">
                        <path d="M768,576L704,544L736,496L768,576Z" style="fill:rgb(207,51,78);"/>
                    </g>
                    <g transform="matrix(2,0,0,2,-886.5,-820.75)">
                        <path d="M768,576L704,544L736,496L768,576Z" style="fill:rgb(207,51,78);"/>
                    </g>
                    <g transform="matrix(2,0,0,2,-886.5,-948.75)">
                        <path d="M768,576L704,544L736,496L768,576Z" style="fill:rgb(207,51,78);"/>
                    </g>
                </g>
                <g transform="matrix(0.364997,0,0,0.411168,232.572,44.6434)">
                    <g transform="matrix(2,0,0,2,-1270.5,-756.75)">
                        <path d="M768,576L704,608L736,528L768,576Z" style="fill:rgb(207,51,78);"/>
                    </g>
                    <g transform="matrix(2,0,0,2,-1398.5,-692.75)">
                        <path d="M768,576L704,608L736,528L768,576Z" style="fill:rgb(207,51,78);"/>
                    </g>
                    <g transform="matrix(2,0,0,2,-1270.5,-884.75)">
                        <path d="M768,576L704,608L736,528L768,576Z" style="fill:rgb(207,51,78);"/>
                    </g>
                    <g transform="matrix(2,0,0,2,-1398.5,-820.75)">
                        <path d="M768,576L704,608L736,528L768,576Z" style="fill:rgb(207,51,78);"/>
                    </g>
                    <g transform="matrix(2,0,0,2,-1014.5,-884.75)">
                        <path d="M768,576L704,608L736,528L768,576Z" style="fill:rgb(207,51,78);"/>
                    </g>
                    <g transform="matrix(2,0,0,2,-1142.5,-820.75)">
                        <path d="M768,576L704,608L736,528L768,576Z" style="fill:rgb(207,51,78);"/>
                    </g>
                    <g transform="matrix(2,0,0,2,-1014.5,-1012.75)">
                        <path d="M768,576L704,608L736,528L768,576Z" style="fill:rgb(207,51,78);"/>
                    </g>
                    <g transform="matrix(2,0,0,2,-1142.5,-948.75)">
                        <path d="M768,576L704,608L736,528L768,576Z" style="fill:rgb(207,51,78);"/>
                    </g>
                </g>
                <g transform="matrix(0.364997,0,0,0.411168,232.572,44.6434)">
                    <g transform="matrix(2,0,0,2,-374.5,-948.75)">
                        <path d="M768,576L704,608L736,528L768,576Z" style="fill:rgb(207,51,78);"/>
                    </g>
                    <g transform="matrix(2,0,0,2,-502.5,-884.75)">
                        <path d="M768,576L704,608L736,528L768,576Z" style="fill:rgb(207,51,78);"/>
                    </g>
                    <g transform="matrix(2,0,0,2,-374.5,-1076.75)">
                        <path d="M768,576L704,608L736,528L768,576Z" style="fill:rgb(207,51,78);"/>
                    </g>
                    <g transform="matrix(2,0,0,2,-502.5,-1012.75)">
                        <path d="M768,576L704,608L736,528L768,576Z" style="fill:rgb(207,51,78);"/>
                    </g>
                    <g transform="matrix(2,0,0,2,-118.5,-1076.75)">
                        <path d="M768,576L704,608L736,528L768,576Z" style="fill:rgb(207,51,78);"/>
                    </g>
                    <g transform="matrix(2,0,0,2,-246.5,-1012.75)">
                        <path d="M768,576L704,608L736,528L768,576Z" style="fill:rgb(207,51,78);"/>
                    </g>
                    <g transform="matrix(2,0,0,2,-118.5,-1204.75)">
                        <path d="M768,576L704,608L736,528L768,576Z" style="fill:rgb(207,51,78);"/>
                    </g>
                    <g transform="matrix(2,0,0,2,-246.5,-1140.75)">
                        <path d="M768,576L704,608L736,528L768,576Z" style="fill:rgb(207,51,78);"/>
                    </g>
                    <g transform="matrix(2,0,0,2,-630.5,-820.75)">
                        <path d="M768,576L704,608L736,528L768,576Z" style="fill:rgb(207,51,78);"/>
                    </g>
                    <g transform="matrix(2,0,0,2,-630.5,-948.75)">
                        <path d="M768,576L704,608L736,528L768,576Z" style="fill:rgb(207,51,78);"/>
                    </g>
                </g>
                <g transform="matrix(0.364997,0,0,0.411168,232.572,44.6434)">
                    <g transform="matrix(2,0,0,2,-630.5,-1076.75)">
                        <path d="M704,544L640,512L736,496L704,544Z" style="fill:rgb(207,51,78);"/>
                    </g>
                    <g transform="matrix(2,0,0,2,-758.5,-1012.75)">
                        <path d="M704,544L640,512L736,496L704,544Z" style="fill:rgb(207,51,78);"/>
                    </g>
                    <g transform="matrix(2,0,0,2,-502.5,-1012.75)">
                        <path d="M704,544L640,512L736,496L704,544Z" style="fill:rgb(207,51,78);"/>
                    </g>
                    <g transform="matrix(2,0,0,2,-630.5,-948.75)">
                        <path d="M704,544L640,512L736,496L704,544Z" style="fill:rgb(207,51,78);"/>
                    </g>
                    <g transform="matrix(2,0,0,2,-374.5,-1204.75)">
                        <path d="M704,544L640,512L736,496L704,544Z" style="fill:rgb(207,51,78);"/>
                    </g>
                    <g transform="matrix(2,0,0,2,-502.5,-1140.75)">
                        <path d="M704,544L640,512L736,496L704,544Z" style="fill:rgb(207,51,78);"/>
                    </g>
                    <g transform="matrix(2,0,0,2,-246.5,-1140.75)">
                        <path d="M704,544L640,512L736,496L704,544Z" style="fill:rgb(207,51,78);"/>
                    </g>
                    <g transform="matrix(2,0,0,2,-374.5,-1076.75)">
                        <path d="M704,544L640,512L736,496L704,544Z" style="fill:rgb(207,51,78);"/>
                    </g>
                    <g transform="matrix(2,0,0,2,-246.5,-1268.75)">
                        <path d="M704,544L640,512L736,496L704,544Z" style="fill:rgb(207,51,78);"/>
                    </g>
                    <g transform="matrix(2,0,0,2,-118.5,-1204.75)">
                        <path d="M704,544L640,512L736,496L704,544Z" style="fill:rgb(207,51,78);"/>
                    </g>
                </g>
                <g transform="matrix(0.364997,0,0,0.411168,226.732,54.5114)">
                    <g transform="matrix(2,0,0,2,-998.5,-1036.75)">
                        <path d="M704,544L640,512L736,496L704,544Z" style="fill:rgb(207,51,78);"/>
                    </g>
                    <g transform="matrix(2,0,0,2,-1126.5,-972.75)">
                        <path d="M704,544L640,512L736,496L704,544Z" style="fill:rgb(207,51,78);"/>
                    </g>
                    <g transform="matrix(2,0,0,2,-1254.5,-908.75)">
                        <path d="M704,544L640,512L736,496L704,544Z" style="fill:rgb(207,51,78);"/>
                    </g>
                    <g transform="matrix(2,0,0,2,-1382.5,-844.75)">
                        <path d="M704,544L640,512L736,496L704,544Z" style="fill:rgb(207,51,78);"/>
                    </g>
                    <g transform="matrix(2,0,0,2,-1126.5,-1100.75)">
                        <path d="M704,544L640,512L736,496L704,544Z" style="fill:rgb(207,51,78);"/>
                    </g>
                    <g transform="matrix(2,0,0,2,-1254.5,-1036.75)">
                        <path d="M704,544L640,512L736,496L704,544Z" style="fill:rgb(207,51,78);"/>
                    </g>
                    <g transform="matrix(2,0,0,2,-1382.5,-972.75)">
                        <path d="M704,544L640,512L736,496L704,544Z" style="fill:rgb(207,51,78);"/>
                    </g>
                    <g transform="matrix(2,0,0,2,-1510.5,-908.75)">
                        <path d="M704,544L640,512L736,496L704,544Z" style="fill:rgb(207,51,78);"/>
                    </g>
                    <g transform="matrix(2,0,0,2,-486.5,-1292.75)">
                        <path d="M704,544L640,512L736,496L704,544Z" style="fill:rgb(207,51,78);"/>
                    </g>
                    <g transform="matrix(2,0,0,2,-614.5,-1228.75)">
                        <path d="M704,544L640,512L736,496L704,544Z" style="fill:rgb(207,51,78);"/>
                    </g>
                    <g transform="matrix(2,0,0,2,-742.5,-1164.75)">
                        <path d="M704,544L640,512L736,496L704,544Z" style="fill:rgb(207,51,78);"/>
                    </g>
                    <g transform="matrix(2,0,0,2,-870.5,-1100.75)">
                        <path d="M704,544L640,512L736,496L704,544Z" style="fill:rgb(207,51,78);"/>
                    </g>
                    <g transform="matrix(2,0,0,2,-614.5,-1356.75)">
                        <path d="M704,544L640,512L736,496L704,544Z" style="fill:rgb(207,51,78);"/>
                    </g>
                    <g transform="matrix(2,0,0,2,-742.5,-1292.75)">
                        <path d="M704,544L640,512L736,496L704,544Z" style="fill:rgb(207,51,78);"/>
                    </g>
                    <g transform="matrix(2,0,0,2,-870.5,-1228.75)">
                        <path d="M704,544L640,512L736,496L704,544Z" style="fill:rgb(207,51,78);"/>
                    </g>
                    <g transform="matrix(2,0,0,2,-998.5,-1164.75)">
                        <path d="M704,544L640,512L736,496L704,544Z" style="fill:rgb(207,51,78);"/>
                    </g>
                    <g transform="matrix(2,0,0,2,-358.5,-1356.75)">
                        <path d="M704,544L640,512L736,496L704,544Z" style="fill:rgb(207,51,78);"/>
                    </g>
                    <g transform="matrix(2,0,0,2,-486.5,-1420.75)">
                        <path d="M704,544L640,512L736,496L704,544Z" style="fill:rgb(207,51,78);"/>
                    </g>
                </g>
                <g transform="matrix(0.364997,0,0,0.411168,232.572,44.6434)">
                    <g transform="matrix(2,0,0,2,-1526.5,-628.75)">
                        <path d="M768,576L704,544L736,496L768,576Z" style="fill:rgb(207,51,78);"/>
                    </g>
                    <g transform="matrix(2,0,0,2,-1526.5,-756.75)">
                        <path d="M768,576L704,544L736,496L768,576Z" style="fill:rgb(207,51,78);"/>
                    </g>
                    <g transform="matrix(2,0,0,2,-1654.5,-692.75)">
                        <path d="M768,576L704,544L736,496L768,576Z" style="fill:rgb(207,51,78);"/>
                    </g>
                    <g transform="matrix(2,0,0,2,-1654.5,-820.75)">
                        <path d="M768,576L704,544L736,496L768,576Z" style="fill:rgb(207,51,78);"/>
                    </g>
                </g>
            </g>
        </g>
    </g>
</svg>
